HIERARCHY
ROOT Hips
{
	OFFSET 0.00000 0.00000 0.00000
	CHANNELS 6 Xposition Yposition Zposition Yrotation Zrotation Xrotation 
	JOINT Lumbar
	{
		OFFSET 0 0 0
		CHANNELS 3 Zrotation Xrotation Yrotation
		JOINT Neck
		{
			OFFSET 0.00 0.2701 0.00
			CHANNELS 3 Zrotation Xrotation Yrotation
			End Site
			{
				OFFSET 0.00 0.1379 0.00
			}
		}
		JOINT RightShoulder
		{
			OFFSET 0.0119 0.2289 0.1181
			CHANNELS 3 Zrotation Xrotation Yrotation
			JOINT RightElbow
			{
				OFFSET 0.00 -0.1475 0.00
				CHANNELS 2 Zrotation Yrotation
				JOINT RightWrist
				{
					OFFSET 0.00 -0.1605 0.00
					CHANNELS 2 Zrotation Xrotation
					End Site
					{
						OFFSET 0.0040 -0.1068 0.0006
					}
				}
			}
		}
		JOINT LeftShoulder
		{
			OFFSET 0.0119 0.2289 -0.1181
			CHANNELS 3 Zrotation Xrotation Yrotation
			JOINT LeftElbow
			{
				OFFSET 0.00 -0.1475 0.00
				CHANNELS 2 Zrotation Yrotation
				JOINT LeftWrist
				{
					OFFSET 0.00 -0.1605 0.00
					CHANNELS 2 Zrotation Xrotation
					End Site
					{
						OFFSET 0.0040 -0.1068 -0.0006
					}
				}
			}
		}
	}
	JOINT RightHip
	{
		OFFSET 0.0316 -0.0424 0.0458
		CHANNELS 3 Zrotation Xrotation Yrotation
		JOINT RightKnee
		{
			OFFSET 0.00 -0.2438 0.00
			CHANNELS 1 Zrotation
			JOINT RightAnkle
			{
				OFFSET 0.00 -0.2449 0.00
				CHANNELS 3 Zrotation Xrotation Yrotation
				End Site
				{
					OFFSET 0.1237 -0.0542 0.0051
				}
			}
		}
	}
	JOINT LeftHip
	{
		OFFSET 0.0316 -0.0424 -0.0458
		CHANNELS 3 Zrotation Xrotation Yrotation
		JOINT LeftKnee
		{
			OFFSET 0.00 -0.2438 0.00
			CHANNELS 1 Zrotation
			JOINT LeftAnkle
			{
				OFFSET 0.00 -0.2449 0.00
				CHANNELS 3 Zrotation Xrotation Yrotation
				End Site
				{
					OFFSET 0.1237 -0.0542 -0.0051
				}
			}
		}
	}
}
MOTION
Frames: 25
Frame Time: 0.02
0.03878 -0.09615 0.63437 -36.48225 -60.66385 7.6635 -17.12932 4.03739 -3.86514 -28.4147 -18.3519 -2.11994 100.79385 3.33706 -15.94481 6.29564 81.18051 -2.4306 -5.01804 93.92752 14.441 -52.72078 14.83859 -83.84211 -10.83568 1.65345 94.64688 -4.32949 -17.43812 -79.84658 -6.27817 -3.75829 -4.03621 119.89235 15.12964 -5.88545 -76.72747 -7.68944 2.67725 3.58495
0.03974 -0.09469 0.6343 -36.97955 -60.9184 6.9354 -17.16053 4.29362 -4.65809 -28.56484 -18.60517 -2.11994 100.52887 5.0038 -5.22267 6.90197 81.24512 -2.00829 -4.66008 94.39647 16.03571 -53.23643 14.78538 -82.3655 -10.09246 0.80187 94.45725 -4.22738 -17.7892 -79.23583 -6.25439 -3.7326 -4.02276 119.97238 15.31669 -5.89716 -76.41874 -7.67756 2.65347 3.57128
0.04068 -0.09295 0.63422 -37.57317 -61.15444 6.15868 -17.22652 4.49723 -5.50608 -28.70026 -18.84649 -2.11994 100.1831 6.72137 6.39535 7.75705 81.18788 -1.19066 -4.3157 94.90047 17.81263 -53.86829 14.649 -80.69395 -9.29304 -0.03161 94.20902 -4.05258 -18.08124 -78.50558 -6.23783 -3.70963 -4.01125 119.97451 15.61397 -5.79145 -76.01982 -7.67363 2.62014 3.55309
0.04163 -0.09136 0.63414 -38.12063 -61.39622 5.41943 -17.27372 4.71261 -6.29807 -28.84224 -19.09491 -2.11994 99.87886 8.37022 17.27336 8.47623 81.18622 -0.58673 -3.97912 95.36809 19.46328 -54.41934 14.55476 -79.18695 -8.54281 -0.85418 93.98934 -3.91288 -18.38919 -77.83491 -6.21819 -3.68581 -3.99902 120.00698 15.8529 -5.74362 -75.66828 -7.66608 2.59303 3.538
0.04257 -0.08968 0.63409 -38.68512 -61.65019 4.6084 -17.33376 4.98227 -7.22654 -28.98973 -19.3432 -2.11994 99.54987 10.23146 29.67494 9.29127 81.18702 0.15192 -3.57831 95.92218 21.3135 -55.07933 14.44294 -77.35529 -7.68492 -1.76927 93.75688 -3.76654 -18.75235 -77.13502 -6.19672 -3.65964 -3.98568 120.05979 16.12559 -5.68343 -75.28682 -7.65877 2.55817 3.51862
0.04353 -0.08812 0.63397 -39.23255 -61.87655 3.93878 -17.37271 5.12563 -7.88133 -29.11982 -19.58509 -2.11994 99.25665 11.6526 39.05567 9.96345 81.1532 0.70733 -3.3157 96.30459 22.78397 -55.5456 14.34947 -76.14996 -7.04077 -2.48029 93.54196 -3.61752 -18.98486 -76.47124 -6.18106 -3.63918 -3.97523 120.0553 16.35487 -5.61754 -74.94708 -7.65281 2.53698 3.50699
0.0446 -0.08691 0.63367 -39.73125 -61.9973 3.66189 -17.37841 4.92817 -7.77101 -29.21179 -19.82657 -2.11994 99.06055 11.87379 40.05427 10.21248 81.04482 0.65982 -3.44158 96.20245 23.17485 -55.42288 14.30458 -76.78696 -7.00301 -2.66515 93.34981 -3.45918 -18.84679 -75.92514 -6.18084 -3.63515 -3.97293 119.87024 16.43327 -5.57657 -74.74919 -7.64796 2.55752 3.51878
0.04569 -0.08582 0.6333 -40.20446 -62.09481 3.53171 -17.35752 4.60608 -7.38219 -29.28499 -20.05844 -2.11994 98.90745 11.6435 37.93382 10.30449 80.9069 0.41569 -3.70505 95.92665 23.17228 -55.10661 14.28439 -78.05105 -7.18305 -2.63893 93.18325 -3.30344 -18.58149 -75.42289 -6.1862 -3.6367 -3.97344 119.63596 16.46499 -5.53076 -74.59661 -7.64421 2.59178 3.53833
0.04676 -0.0847 0.63297 -40.67455 -62.22702 3.34149 -17.32503 4.34351 -7.11699 -29.36193 -20.2847 -2.11994 98.74919 11.59817 37.10997 10.44664 80.78764 0.26288 -3.8997 95.73154 23.3393 -54.89719 14.26779 -78.98577 -7.26287 -2.6852 93.03353 -3.15928 -18.38962 -74.90823 -6.18832 -3.63486 -3.97227 119.45304 16.52085 -5.47872 -74.41998 -7.64042 2.61868 3.55373
0.04787 -0.08349 0.63263 -41.21107 -62.26442 3.12124 -17.38662 4.06608 -6.86485 -29.45846 -20.55332 -2.11994 98.52786 11.63687 36.83039 10.68342 80.64194 0.11498 -4.12126 95.53013 23.55334 -54.61339 14.1876 -80.09767 -7.34556 -2.82563 92.76855 -2.96015 -18.13291 -74.35574 -6.19345 -3.63643 -3.97274 119.15167 16.56829 -5.45884 -74.25228 -7.63524 2.65011 3.57167
0.04891 -0.08249 0.63229 -41.60078 -62.48439 2.99931 -17.25436 3.79184 -6.5204 -29.51016 -20.73086 -2.11994 98.44851 11.39692 34.66338 10.68709 80.54609 -0.0944 -4.31931 95.30022 23.57174 -54.43525 14.24455 -80.99607 -7.47509 -2.7254 92.74173 -2.87534 -17.97812 -73.89632 -6.19379 -3.63251 -3.9706 119.07803 16.62065 -5.37165 -74.08105 -7.63278 2.67535 3.58614
0.04974 -0.082 0.63196 -41.60099 -63.29816 3.11034 -16.51561 3.54698 -5.97416 -29.44074 -20.66595 -2.11994 98.75596 10.46069 28.07219 10.04499 80.59342 -0.431 -4.41701 95.03346 23.16121 -54.61148 14.69328 -81.11733 -7.6778 -1.96588 93.44331 -3.12088 -18.16791 -73.66428 -6.17733 -3.60926 -3.95914 119.71833 16.69787 -5.10721 -73.86219 -7.64053 2.68161 3.58996
0.0505 -0.08172 0.63165 -41.45275 -64.28206 3.31543 -15.59582 3.31167 -5.3477 -29.32755 -20.50924 -2.11994 99.20357 9.26706 19.69882 9.17974 80.69277 -0.82304 -4.48546 94.74412 22.5645 -54.89732 15.27569 -81.00892 -7.92045 -0.98034 94.37066 -3.47893 -18.45955 -73.52826 -6.15618 -3.58075 -3.94519 120.57736 16.78075 -4.77541 -73.64333 -7.65045 2.68102 3.58994
0.05129 -0.08136 0.63133 -41.36474 -65.13152 3.4802 -14.8113 3.07885 -4.76682 -29.23539 -20.38928 -2.11994 99.5848 8.21437 12.09624 8.44233 80.77009 -1.18868 -4.56981 94.46519 22.04107 -55.12239 15.7852 -81.02976 -8.14766 -0.12854 95.14308 -3.77573 -18.68304 -73.36166 -6.13864 -3.55655 -3.93337 121.28735 16.86113 -4.46883 -73.44294 -7.65733 2.68255 3.59111
0.05211 -0.08093 0.631 -41.30353 -66.21636 3.64223 -13.8072 2.81312 -4.13546 -29.13667 -20.28698 -2.11994 99.98154 7.04147 4.47238 7.58921 80.83978 -1.56826 -4.65249 94.17899 21.54818 -55.38703 16.34817 -80.96958 -8.3731 0.86232 96.13291 -4.1151 -18.99185 -73.14258 -6.11527 -3.52464 -3.91757 122.20066 16.94131 -4.1805 -73.16751 -7.67266 2.68841 3.59473
0.05284 -0.08071 0.63069 -41.15522 -66.85785 3.82736 -13.21144 2.61945 -3.5967 -29.04286 -20.12998 -2.11994 100.3753 6.06787 -3.3917 6.92463 80.93777 -1.92666 -4.72419 93.90559 20.95721 -55.59782 16.82954 -81.01266 -8.60621 1.6136 96.72869 -4.39274 -19.15196 -73.05354 -6.10262 -3.50719 -3.90926 122.7487 17.02173 -3.84361 -73.04604 -7.67124 2.68388 3.59246
0.05337 -0.08103 0.63043 -40.77085 -66.18107 4.07889 -13.84176 2.62619 -3.30921 -28.9611 -19.81157 -2.11994 100.75645 5.67323 -12.3325 6.84851 81.10481 -2.23744 -4.82317 93.66757 20.10203 -55.63266 17.06736 -81.41831 -8.87351 1.65509 96.13471 -4.47047 -18.85017 -73.31299 -6.12272 -3.53339 -3.92354 122.18735 17.11954 -3.3432 -73.36446 -7.62002 2.64856 3.57283
0.05382 -0.08156 0.63017 -40.3098 -65.06276 4.34512 -14.87888 2.70495 -3.12315 -28.88804 -19.44704 -2.11994 101.12462 5.49615 -21.29463 6.96823 81.29834 -2.52001 -4.90341 93.44536 19.16345 -55.60997 17.21565 -81.92855 -9.14241 1.44605 95.14554 -4.4826 -18.40076 -73.69715 -6.15339 -3.57383 -3.94517 121.26045 17.21419 -2.80476 -73.83465 -7.55245 2.60366 3.54773
0.05431 -0.08199 0.62991 -39.90513 -64.18029 4.58677 -15.69489 2.749 -2.90837 -28.81928 -19.12571 -2.11994 101.47812 5.24502 -29.65488 6.99018 81.47711 -2.79792 -4.95663 93.22006 18.29099 -55.6156 17.39534 -82.37407 -9.39378 1.34498 94.36688 -4.52595 -18.03692 -74.01585 -6.17788 -3.60609 -3.96254 120.53152 17.29871 -2.31401 -74.22569 -7.49428 2.56556 3.5264
0.05479 -0.08247 0.62966 -39.4052 -63.15266 4.9064 -16.65928 2.80199 -2.61898 -28.71465 -18.70896 -2.11994 101.92076 4.88223 -40.51664 7.04073 81.66785 -3.14962 -5.15309 92.97551 17.29408 -55.61816 17.61892 -82.88522 -9.71511 1.27359 93.46314 -4.56704 -17.59865 -74.37598 -6.20802 -3.64534 -3.98371 119.67363 17.43246 -1.69295 -74.66051 -7.42774 2.5169 3.49949
0.05528 -0.08289 0.62939 -39.08638 -62.32351 5.06706 -17.4114 2.85292 -2.508 -28.6867 -18.47912 -2.11994 102.17608 4.8041 -46.22831 7.08182 81.8409 -3.34275 -5.05449 92.77647 16.53728 -55.60903 17.72807 -83.28657 -9.89371 1.0819 92.72619 -4.5961 -17.27886 -74.67697 -6.22899 -3.67352 -3.99875 118.99734 17.46255 -1.33461 -75.03918 -7.37487 2.48805 3.48297
0.0558 -0.08311 0.62904 -39.29565 -62.11989 4.77451 -17.4997 2.88453 -2.88421 -28.87451 -18.7952 -2.11994 101.88852 5.48547 -37.02269 7.04495 81.94253 -3.08187 -4.08166 92.68816 16.48047 -55.60777 17.54219 -83.36692 -9.64995 0.5842 92.51728 -4.60457 -17.32235 -74.79455 -6.22184 -3.66754 -3.99499 118.88638 17.21138 -1.71401 -75.23509 -7.36225 2.51606 3.49635
0.05634 -0.08327 0.62867 -39.68853 -62.13446 4.32328 -17.3588 2.91089 -3.43321 -29.13832 -19.29804 -2.11994 101.41746 6.44138 -22.75427 6.99393 82.02683 -2.66619 -2.82437 92.64726 16.66594 -55.59165 17.24367 -83.33301 -9.2673 -0.02014 92.49273 -4.60297 -17.48881 -74.84636 -6.2052 -3.65003 -3.98488 118.97307 16.85633 -2.35724 -75.36807 -7.36408 2.56428 3.52033
0.05687 -0.08345 0.62831 -39.99249 -62.07037 3.95082 -17.30735 2.93689 -3.89094 -29.36343 -19.70364 -2.11994 101.04874 7.2565 -11.24587 6.95281 82.13106 -2.33643 -1.73978 92.5921 16.73076 -55.56427 16.99674 -83.34713 -8.96649 -0.55428 92.40364 -4.60808 -17.59957 -74.92038 -6.19299 -3.63781 -3.97771 118.98671 16.54463 -2.88022 -75.52302 -7.36042 2.60361 3.53965
0.05739 -0.08367 0.62795 -40.3182 -61.91114 3.54958 -17.32541 2.97666 -4.40631 -29.60615 -20.15957 -2.11994 100.60014 8.14998 2.20431 6.90274 82.19087 -1.94079 -0.47223 92.50692 16.83755 -55.60965 16.74537 -83.38032 -8.58746 -1.19038 92.22564 -4.60329 -17.708 -75.02931 -6.18044 -3.62562 -3.9704 118.92267 16.24448 -3.41024 -75.70898 -7.35219 2.64193 3.55843
